<?xml version="1.0" encoding="UTF-8"?>
<svg xmlns="http://www.w3.org/2000/svg" id="Layer_1" data-name="Layer 1" viewBox="0 0 24 24">
  <path d="m15,9c-.366,0-.705.106-1,.278v-.278c0-1.103-.897-2-2-2-.415,0-.8.127-1.12.344-.273-.78-1.008-1.344-1.88-1.344-1.103,0-2,.897-2,2v.278c-.295-.172-.634-.278-1-.278-1.103,0-2,.897-2,2v4.596c-.888-.626-2.082-.665-2.94-.048-.603.435-.983,1.104-1.042,1.836s.205,1.45.698,1.942l3.31,3.849c1.227,1.228,2.859,1.904,4.596,1.904h1.798c3.628,0,6.579-2.951,6.579-6.579v-6.5c0-1.103-.897-2-2-2Zm1,8.5c0,3.076-2.503,5.579-5.579,5.579h-1.798c-1.47,0-2.851-.572-3.863-1.584l-3.31-3.849c-.312-.312-.47-.743-.434-1.183.036-.445.26-.838.629-1.104.583-.421,1.443-.316,1.965.2l1.391,1.74v-7.3c0-.551.449-1,1-1s1,.449,1,1v6h1v-8c0-.551.449-1,1-1s1,.449,1,1v8h1v-7c0-.551.449-1,1-1s1,.449,1,1v7h1v-5c0-.551.449-1,1-1s1,.449,1,1v6.5Zm7.982-7.195c.059.732-.205,1.451-.724,1.97l-3.258,3.794c-.31.31-.648.571-1,.808v-1.26c.088-.078.183-.145.267-.228l3.258-3.793c.337-.339.496-.771.46-1.21-.036-.446-.259-.838-.629-1.105-.584-.42-1.445-.317-2.002.241l-1.354,1.698v-7.22c0-.551-.449-1-1-1s-1,.449-1,1v3.556c-.31-.181-.644-.322-1-.414V2c0-.551-.449-1-1-1s-1,.449-1,1v3.556c-.31-.181-.644-.322-1-.414v-2.142c0-.551-.449-1-1-1s-1,.449-1,1v1.556c-.109-.064-.923-.556-2-.556-.706,0-1.359.199-1.936.521.216-.871.998-1.521,1.936-1.521.366,0,.706.101,1,.274v-.274c0-1.103.897-2,2-2,.415,0,.8.127,1.12.344.273-.78,1.008-1.344,1.88-1.344,1.103,0,2,.897,2,2v.278c.295-.172.634-.278,1-.278,1.103,0,2,.897,2,2v4.527c.911-.638,2.09-.67,2.94-.058.603.435.983,1.104,1.042,1.836Z"/>
</svg>
